<svg
	version="1.0"
    xmlns="http://www.w3.org/2000/svg"
    viewBox="0 0 720 720"
>
	<g>
		<path style="fill: rgb(204, 0, 1); fill-opacity: 1;" d="M528.08 669.194c-.33-1.04-1.519-2.132-2.641-2.426-1.124-.294-2.286-1.467-2.585-2.608-.298-1.14-1.074-2.074-1.725-2.074-.65 0-2.285-1.831-3.633-4.07-1.348-2.238-3.013-4.68-3.7-5.428-.688-.748-1.25-1.841-1.25-2.43 0-.59-.9-1.072-2-1.072-1.172 0-2-.667-2-1.609 0-1.216-.61-1.455-2.5-.98-1.846.463-2.5.229-2.5-.892 0-.836-.411-1.52-.913-1.52-1.41 0-2.56-8.342-1.211-8.791 1.627-.543 1.38-3.208-.297-3.208-1.859 0-4.959-9.356-4.157-12.548.447-1.784.207-2.452-.882-2.452-.823 0-2.233-1.125-3.134-2.5-1.368-2.088-2.424-2.5-6.406-2.5-5.2 0-5.96-.96-5.988-7.583-.008-1.702-.574-3.16-1.264-3.252-.687-.091-2.937-.44-5-.775-3.032-.491-3.75-.3-3.75 1.002 0 .885-.657 1.609-1.461 1.609-.804 0-2.266.82-3.25 1.821-.984 1.002-3.922 2.612-6.529 3.58-2.606.966-4.996 2.17-5.309 2.678-.313.506-1.442.92-2.51.92s-1.94.366-1.94.812c0 .446-2.277 1.394-5.06 2.107-2.79.715-5.588 2.145-6.24 3.19-.65 1.04-1.749 1.892-2.442 1.892-.692 0-1.26.41-1.26.912s-1.911 1.22-4.25 1.596c-2.336.376-5.16 1.26-6.273 1.963-1.113.703-4.488 2.319-7.5 3.59-3.012 1.27-6.55 3.127-7.86 4.125-1.313.997-3.225 1.814-4.25 1.814-1.027 0-1.866.4-1.866.888 0 .489-1.912.887-4.25.885-13.91-.01-32.677 1.173-35.25 2.221-3.302 1.347-36.483.581-37.47-.863-.76-1.114-4.03-2.206-4.03-1.346 0 .622-4.488.678-22.75.286-2.647-.057-3.272-.488-3.366-2.32-.087-1.693-.23-1.817-.573-.5-.252.962-1.1 1.75-1.884 1.75-.785 0-1.463-.788-1.506-1.75-.047-1.046-.282-1.247-.583-.5-.814 2.016-3.944 1.44-6.476-1.19-2.136-2.22-2.9-2.388-8.465-1.868-4.046.378-6.353.188-6.816-.56-.384-.623-1.588-1.132-2.675-1.132-1.087 0-3.143-.764-4.568-1.698-1.812-1.188-5.334-1.813-11.715-2.08-10.653-.444-20.624-3.57-20.624-6.467 0-1.087-.76-1.754-2-1.754-1.1 0-1.947-.338-1.882-.75.066-.413.059-1.425-.015-2.25-.12-1.333-.24-1.333-1.09 0-.678 1.062-1.36 1.208-2.336.5-.758-.55-3.359-2.306-5.778-3.902-2.42-1.596-5.448-4.02-6.73-5.388-2.162-2.307-2.185-2.447-.324-1.96 1.422.371 1.85.122 1.474-.858-.291-.76-.983-1.1-1.537-.758-.554.342-1.4.002-1.88-.756-.69-1.09-.877-1.012-.889.372-.008 1.078-.782 1.75-2.014 1.75-1.1 0-2-.45-2-1s-.606-1-1.347-1c-.742 0-1.837-1.013-2.434-2.25-.863-1.792-1.098-1.893-1.152-.5-.047 1.195-.883 1.75-2.635 1.75-2.092 0-2.454.362-1.95 1.95.676 2.128-1.588 7.313-4.665 10.682-1.083 1.187-1.97 3.625-2 5.5-.031 1.852-1.353 6.132-2.937 9.51-1.585 3.38-2.882 6.46-2.882 6.846 0 .387-.862 1.914-1.916 3.394-2.32 3.258-6.112 14.118-4.929 14.118 1.332 0 1.005 1.768-1.154 6.236-1.1 2.277-2 4.855-2 5.729 0 .875-1.396 2.816-3.103 4.313-2.906 2.55-3.698 2.723-12.5 2.723-7.543 0-9.397-.286-9.397-1.45 0-.798-.783-1.89-1.74-2.425-1.528-.853-1.737-2.698-1.715-15.082.026-13.87.07-14.147 2.58-16.326 2.107-1.828 2.476-2.874 2.105-5.972-.626-5.235.439-10.01 2.797-12.542 1.814-1.946 2.026-3.742 2.272-19.175.15-9.365-.07-17.027-.488-17.027-1.192 0-12.81-11.667-12.81-12.865 0-.589-.71-.8-1.577-.466-1.684.646-11.424-8.1-11.424-10.258 0-.64-.66-1.713-1.468-2.384-.807-.67-1.37-1.737-1.25-2.372.12-.635-.682-1.033-1.782-.884-1.368.184-4.45-2.21-9.75-7.579-4.262-4.317-7.75-8.42-7.75-9.118 0-.7-1.645-2.734-3.655-4.523-3.282-2.921-3.594-3.624-3.062-6.902.485-2.988.287-3.651-1.095-3.661-2.253-.017-6-5.973-6.765-10.752l-.616-3.848-4.935.112c-3.337.075-4.793-.26-4.496-1.035.243-.63.04-1.78-.451-2.555-.613-.967-.898-.18-.909 2.502-.01 3.132-.655 4.483-3.235 6.786-3.381 3.02-3.948 3.229-12.78 4.727-3.024.513-7.487 1.434-9.917 2.047-2.43.613-4.98.898-5.667.635-.686-.264-1.508.196-1.824 1.021-.317.826-1.367 1.37-2.333 1.212-.966-.16-2.32.064-3.007.495-.688.431-1.25.532-1.25.225 0-.308-.91.35-2.02 1.462-1.698 1.697-3.211 1.998-9.447 1.877-6.72-.13-7.467-.346-7.844-2.27-.33-1.677-.447-1.544-.554.622-.085 1.717-.7 2.75-1.636 2.75-.825 0-1.5-.338-1.499-.75 0-.413-1.911-.75-4.25-.75h-4.25l.113-3.75c.063-2.063-.275-3.75-.75-3.75-.993 0-1.145-9.348-.208-12.847.526-1.966 1.093-2.254 3.491-1.775 3.586.718 7.143-.845 8.394-3.689.527-1.198 1.857-2.348 2.954-2.555 1.098-.206 3.978-1.739 6.4-3.406 2.423-1.667 5.8-3.075 7.506-3.13 3.889-.123 5.644-1.716 4.924-4.467-.348-1.33-.09-2.131.683-2.131.683 0 3.936-1.8 7.23-4 3.295-2.2 6.562-4 7.26-4 .698 0 1.52-.96 1.827-2.132.406-1.553 1.108-1.988 2.583-1.603 1.113.292 1.928.24 1.809-.117-.119-.356.09-.647.465-.647s1.725-1.546 3-3.435c1.276-1.889 4.21-4.364 6.522-5.5 2.49-1.223 4.222-2.777 4.25-3.814.025-.963.665-1.75 1.42-1.75 1.54 0 2.626-4.235 2.626-10.242 0-3.5.247-3.927 2-3.468 1.1.287 2 .115 2-.384 0-.498-.654-.906-1.453-.906-1.7 0-3.533-5.823-3.541-11.25-.004-2.664-.44-3.75-1.506-3.75-1.51 0-1.568-.345-2.08-12.262-.113-2.619-.929-5.865-1.813-7.215-3.254-4.967-1.374-22.9 2.843-27.117 1.072-1.072 1.504-1.106 1.89-.148.276.682.538.228.58-1.01.044-1.237.62-2.25 1.28-2.25.933 0 .933-.266 0-1.2-.66-.66-1.2-2.228-1.2-3.485 0-4.06 2.377-11.314 3.707-11.314.711 0 1.293-.675 1.293-1.5s-.45-1.5-1-1.5-1-.538-1-1.196c0-1.448 4.792-8.67 7.256-10.934 1.033-.95 1.512-2.311 1.147-3.263-.346-.898-.191-2.19.342-2.87 1.622-2.068 4.254-10.895 4.254-14.266 0-4.345 1.91-9.471 3.53-9.471.735 0 1.62-.9 1.97-2 .35-1.1 1.226-2 1.948-2 .723 0 2.566-2.475 4.096-5.5 1.53-3.025 3.16-5.5 3.62-5.5.46 0 .836-.818.836-1.819 0-2.977 2.946-11.984 4.393-13.431.738-.74 1.67-2.376 2.07-3.638.47-1.48 1.317-2.142 2.382-1.864 1.234.322 1.71-.323 1.874-2.538.297-4.01 2.562-7.225 6.235-8.85 2.288-1.013 3.046-2.007 3.046-3.996 0-1.74 1.628-4.485 4.75-8.006 2.612-2.947 5.062-5.5 5.444-5.673.381-.172.478-.876.214-1.564-.767-1.997 1.961-6.323 7.218-11.447 2.68-2.614 5.672-5.972 6.647-7.463 1.347-2.061 2.58-2.711 5.142-2.711 2.03 0 3.593-.58 3.93-1.457.484-1.264 2.173-2.562 10.466-8.044 3.864-2.555 5.497-5.06 5.956-9.139.473-4.188.626-4.361 3.862-4.361 1.854 0 3.37-.45 3.37-1s.415-1 .923-1c.935 0 7.076-5.754 7.076-6.63 0-1.465 5.762-7.37 7.19-7.37.93 0 1.97-.45 2.31-1 .34-.55 2.152-1 4.028-1 2.769 0 3.29-.313 2.77-1.664-.445-1.162-.264-1.433.602-.898.682.422 1.63 1.733 2.107 2.914.852 2.112.867 2.108.93-.219.05-1.863.49-2.256 2.063-1.844 1.1.287 2 .174 2-.252s1.688-1.036 3.75-1.354c2.062-.32 4.762-.88 6-1.249 1.765-.523 2.255-.265 2.273 1.2.014 1.288.504.888 1.58-1.294 1.371-2.78 2.387-3.347 8.451-4.716 3.792-.857 8.688-2.472 10.88-3.59 2.193-1.12 5.553-2.034 7.467-2.034 1.915 0 3.76-.45 4.1-1 .339-.55 1.505-1 2.59-1 1.084 0 2.232-.677 2.55-1.505.524-1.366 4.054-3.357 8.61-4.856.98-.322 1.755-1.579 1.763-2.857.022-3.737 1.134-6.781 2.478-6.781.692 0 1.541-1.417 1.888-3.149.658-3.29 6.213-9.822 8.37-9.84.688-.006 1.25-.392 1.25-.858 0-.467.9-1.886 2-3.154s2-3.103 2-4.076c0-.974 1.107-3.086 2.46-4.694 2.285-2.716 2.483-3.835 2.801-15.826.343-12.914 1.753-18.575 4.887-19.62.684-.228 1.129-2.045 1.045-4.269-.08-2.128.512-7.03 1.317-10.89 1.048-5.024 1.152-7.214.366-7.7-.694-.429-.879-2.472-.502-5.551.328-2.681.884-8.587 1.237-13.124.471-6.08 1.006-8.25 2.033-8.25.982 0 1.211-.728.777-2.46-.538-2.142.672-6.85 3.607-14.04.45-1.1 1.067-3.125 1.373-4.5.307-1.375 1.46-3.963 2.564-5.75 2.414-3.91 6.144-4.362 8.48-1.028 1.754 2.505 2.07 5.778.556 5.778-.55 0-1 .675-1 1.5s.675 1.5 1.5 1.5 1.5.418 1.5.928c0 .511.788 1.713 1.75 2.672 2.445 2.435 7.746 25.569 7.009 30.59-.263 1.792.037 2.81.829 2.81.817 0 1.484 2.592 1.952 7.58.453 4.835 1.19 7.763 2.039 8.089 1.957.75 5.42 7.069 5.42 9.888 0 1.47.58 2.443 1.456 2.443 1.856 0 2.846 5.144 2.393 12.425-.237 3.808.027 5.578.83 5.577 2.14-.002 6.262 10.602 5.631 14.487-.4 2.471-.193 3.512.7 3.512.946 0 1.13 1.531.726 6-.41 4.514-.225 6 .746 6 2.645 0 4.77 5.035 4.28 10.139-.256 2.673-.082 4.86.387 4.86.47 0 .853.62.853 1.376 0 2.581 12.453 4.119 18.869 2.331 1.888-.525 3.646-.557 4-.07.932 1.279 3.13 1.525 3.13.35 0-1.183 4.906-1.101 10.184.17 2.649.638 3.771 1.49 4 3.038.326 2.22 2.27 3.135 9.066 4.271 3.122.521 3.75 1.03 3.75 3.036 0 1.99.65 2.53 3.725 3.108 2.05.384 4.332 1.305 5.072 2.045.74.74 2.361 1.346 3.601 1.346s3.311 1.125 4.603 2.5 2.905 2.5 3.585 2.5c.682 0 2.32 1.284 3.64 2.854 1.953 2.32 2.997 2.767 5.589 2.387 1.804-.265 3.186-.026 3.186.552 0 .56.97.765 2.156.455 1.467-.384 1.93-.198 1.448.582-.461.747-.158.935.87.54.975-.374 2.508.396 4.005 2.012 1.717 1.852 3.438 2.616 5.891 2.616 1.906 0 5.794 1.17 8.639 2.598 4.056 2.037 5.065 3.01 4.675 4.502-.284 1.086-.08 1.644.477 1.3.535-.33 1.22.344 1.523 1.5.302 1.155 1.02 2.1 1.597 2.1.576 0 2.773.761 4.883 1.692 3.075 1.357 3.836 2.225 3.836 4.378 0 1.477.675 3.245 1.5 3.93.825.685 1.5 2.09 1.5 3.122 0 1.033.645 1.878 1.433 1.878.787 0 1.717.9 2.066 2 .398 1.253 1.513 2 2.988 2 1.803 0 2.508.703 3.014 3.008.786 3.58 3.019 4.997 6.746 4.285 2.051-.393 2.892-.06 3.39 1.342.741 2.082 6.01 7.364 7.347 7.364 1.325 0 7.016 5.994 7.016 7.388 0 .68.9 2.2 2 3.382 1.1 1.18 2 2.803 2 3.605 0 .803.338 1.61.75 1.793 1.777.79 5.26 6.983 5.366 9.542.07 1.691.296 2.101.573 1.04.536-2.05 1.448-2.212 3.11-.55.934.934 1.2.934 1.2 0 0-.66.648-1.2 1.438-1.2.89 0 1.556 1.238 1.75 3.25l.313 3.25 8.468.295c4.901.17 8.762.77 9.166 1.423.894 1.446 19.869-.771 24.627-2.878 1.794-.794 3.706-1.168 4.25-.832.544.336.99.106.99-.51 0-.618.787-1.023 1.75-.9 2.837.359 7.25-1.211 7.25-2.58 0-.868 1.717-1.267 5.446-1.267 4.756 0 5.5.27 5.864 2.125.402 2.052.421 2.047.553-.124.075-1.238.78-2.25 1.566-2.25.787 0 1.626 1.012 1.864 2.25.318 1.648.47 1.392.57-.96.123-2.898.548-3.318 4.386-4.323 2.338-.612 6.05-1.981 8.25-3.043 2.2-1.061 5.44-1.928 7.2-1.927 1.895.002 3.566-.65 4.095-1.596 1.25-2.232 20.773-1.707 22.228.599.521.825.954 5.212.963 9.75.013 6.36-.3 8.25-1.365 8.25-.76 0-2.682 1.33-4.27 2.955-3.384 3.46-9.054 6.046-13.26 6.046-1.893 0-3.513.767-4.452 2.108-.813 1.16-1.963 1.808-2.557 1.441-.633-.39-1.08.144-1.08 1.292 0 1.594-.693 1.959-3.717 1.959-2.045 0-3.882.495-4.084 1.1-.202.605-.799 1.1-1.327 1.1-.53 0-2.18 1.139-3.668 2.531-1.488 1.392-3.702 2.787-4.92 3.1-1.218.312-2.486 1.423-2.818 2.468-.331 1.046-1.262 1.9-2.067 1.9-.805 0-1.723.676-2.04 1.5-.316.826-1.427 1.5-2.468 1.5-1.136 0-1.895.702-1.898 1.75-.005 2.684-3.859 8.402-6.046 8.974-1.073.28-1.95.907-1.95 1.393 0 .485-1.125.883-2.5.883-1.804 0-2.5.538-2.5 1.932 0 1.063-.897 2.218-1.994 2.566-1.097.348-2.741 1.38-3.654 2.293-.913.913-4.853 3.246-8.756 5.184-3.903 1.94-7.18 4.2-7.282 5.026-1.201 9.66-1.551 11-2.875 11-.792 0-1.44.9-1.44 2 0 1.11.668 2 1.5 2 1.455 0 1.69 1.482 1.939 12.196.034 1.483.625 3.26 1.312 3.95 1.436 1.44 1.72 11.854.323 11.854-1.561 0-1.747 3.327-.376 6.718 1.742 4.305 1.658 8.931-.175 9.635-1.28.49-1.252.958.203 3.493 2.202 3.837.853 10.18-2.477 11.64-2.445 1.072-3.077 3.513-.91 3.513 2.919 0 5.108 11.152 2.668 13.592-.655.655-.6 2.029.164 4.052 1.202 3.184 1.056 3.808-2.096 8.99-2.614 4.298-2.898 10.196-.657 13.609 1.294 1.969 1.637 3.8 1.22 6.499-.321 2.065-.792 5.106-1.046 6.756-.95 6.142-3.015 13.5-3.792 13.5-.44 0-.802 1.125-.802 2.5 0 2.11-.467 2.5-3 2.5h-3v7.015c0 6.568-.176 7.126-2.753 8.75-1.927 1.215-2.656 2.41-2.43 3.986.217 1.514-.19 2.25-1.247 2.25-.864 0-1.57.45-1.57 1s.675 1 1.5 1c2.04 0 2.124 10.237.098 11.918-.77.64-1.705 2.374-2.076 3.852-.372 1.479-1.896 3.823-3.39 5.21-1.492 1.386-3.471 3.725-4.398 5.197-.927 1.473-2.708 2.823-3.96 3-1.415.2-2.84 1.545-3.774 3.56-.825 1.78-2.216 3.474-3.09 3.766-1.772.59-3.446 3.577-4.36 7.781-.35 1.609-1.55 3.146-2.84 3.636-1.543.587-2.616 2.28-3.472 5.479-1.675 6.264-1.572 7.36.764 8.102 1.851.587 1.972 1.32 1.592 9.701-.226 4.987-.878 9.355-1.45 9.708-.6.372-.686 1.212-.203 1.994.46.744 1.317 1.055 1.905.691.59-.363 1.76.677 2.611 2.324 2.047 3.957 1.946 5.082-.457 5.082-1.687 0-2 .664-1.993 4.25.004 2.558.797 5.444 1.993 7.25 1.093 1.65 1.99 4.397 1.993 6.104.004 1.918.961 4.134 2.506 5.801 2.612 2.82 2.665 3.016 2.996 11.096.113 2.75 1.122 6.8 2.243 9 1.12 2.2 2.27 5.734 2.553 7.854.284 2.12 1.01 4.347 1.612 4.95 1.34 1.34 1.468 9.696.148 9.696-.57 0-.52 1.226.125 3.078.77 2.21.762 3.76-.03 5.5-1.042 2.285-1.583 2.422-9.558 2.422-7.415 0-8.528-.233-9.055-1.892zm-183.534-83.275c0-.46.9-.834 2-.834s2 .45 2 1 .45 1 1 1 1-.705 1-1.568c0-1.112.58-1.383 2-.932 1.1.35 2.004.267 2.008-.183.01-1.059 4.723-3.253 5.443-2.533.302.302.594 1.712.649 3.133l.1 2.583.69-2.478c.545-1.958 1.415-2.524 4.15-2.703 1.903-.125 5.34-.46 7.636-.743 2.774-.344 4.343-.108 4.671.703.273.672.53.263.574-.907.12-3.25 2.652-4.952 4.83-3.245.962.755 1.986 1.687 2.275 2.07.69.913 2.208-.216 3.544-2.635.767-1.39 3.732-2.567 10.5-4.169 14.343-3.396 16.428-3.997 19.966-5.762 1.8-.898 3.877-1.632 4.618-1.632.74 0 1.346-.585 1.346-1.3 0-.714 1.879-2.4 4.174-3.75 2.296-1.347 5.334-3.61 6.75-5.03 1.417-1.418 4.024-2.866 5.795-3.218 3.831-.761 7.28-3.927 7.28-6.682 0-3.213-3.103-10.02-4.569-10.02-.744 0-2.003-2.137-2.8-4.75-.795-2.613-2.159-6.415-3.03-8.45-.874-2.04-1.687-7.09-1.81-11.25-.125-4.153-.582-7.55-1.017-7.55-2.272 0-6.745-5.969-7.361-9.82-.369-2.299-1.062-4.18-1.542-4.18-.48 0-.872-1.35-.872-3s-.344-3-.764-3c-1.361 0-5.5-9.884-4.976-11.885.351-1.343-.094-2.099-1.444-2.452-1.714-.448-1.92-1.282-1.689-6.836.248-5.944-1.106-10.826-3.002-10.826-1.367 0-3.085-4.818-3.757-10.538-.353-3.004-1.092-5.462-1.643-5.462-.635 0-.76-2.65-.341-7.27.555-6.132.342-7.922-1.363-11.45-1.112-2.301-2.02-4.655-2.02-5.232 0-.576-.442-1.048-.982-1.048-.54 0-1.26-1.111-1.6-2.47-.371-1.476-2.693-3.855-5.77-5.911-2.832-1.893-6.138-4.377-7.346-5.52-1.21-1.144-2.432-1.7-2.718-1.238-.286.463-5.822 2.061-12.303 3.553-6.482 1.492-13.81 3.33-16.284 4.084-7.963 2.429-10.998 2.795-11.015 1.331-.011-1.057-.195-1.044-.898.067-.486.767-1.605 1.119-2.485.78-1.02-.39-1.6-.08-1.6.855 0 2.427-2.99 1.677-3.117-.781-.087-1.693-.23-1.817-.573-.5-.252.962-1.067 1.75-1.81 1.75-.745 0-1.56-.788-1.812-1.75-.251-.963-.51-.288-.573 1.5-.11 3.06-1.757 4.276-3.47 2.563-1.215-1.216-4.547-1.014-5.053.305-.31.804.053 1.07.976.716 1.186-.454 1.135.018-.268 2.462-1.562 2.723-2.47 3.134-9.06 4.115-4.028.599-9.668 1.103-12.533 1.12-8.816.052-20.068 1.859-20.906 3.356-.73 1.303-5.395 3.14-7.054 2.777-.412-.09-.75.217-.75.683 0 1.612-3.742 5.153-5.446 5.153-.94 0-3.488 1.85-5.66 4.11-2.795 2.91-4.524 3.958-5.92 3.593-1.734-.454-1.974-.005-1.974 3.688 0 3.545-.628 4.858-4 8.368-2.793 2.906-4 5.04-4 7.066 0 1.597-.788 3.983-1.75 5.3-2.842 3.892-4.27 6.263-4.896 8.124-.323.962-.985 1.75-1.47 1.75-.486 0-.884 1.125-.884 2.5s-.4 2.5-.889 2.5c-.488 0-1.184 1.575-1.545 3.5-.361 1.925-1.086 3.5-1.611 3.5-.524 0-.954 1.098-.954 2.44 0 1.343-.457 2.724-1.015 3.07-1.684 1.04-3.546 6.564-4.883 14.49-1.988 11.776-2.055 12-3.62 12-1.026 0-1.48 1.075-1.48 3.5 0 1.925.45 3.5 1 3.5 1.499 0 1.213 2.173-.864 6.562-1.025 2.166-2.142 6.74-2.483 10.164-.618 6.226-.618 6.228 3.418 10.47 3.387 3.56 4.573 4.198 7.36 3.958 2.424-.209 4.83.678 8.897 3.28 3.066 1.961 6.7 3.566 8.076 3.566 3.882 0 7.596 2.091 7.596 4.277 0 1.489.497 1.826 2.08 1.412 1.474-.385 1.927-.15 1.558.81-.285.745.13 1.893.921 2.55 1.178.977 1.44.808 1.44-.927 0-1.255.638-2.122 1.56-2.122.857 0 1.281.45.942.998-.752 1.217 3.728.873 4.624-.355 1.091-1.495 6.846.43 8.034 2.687 1.616 3.071 2.781 3.636 7.533 3.654 2.305.01 4.47.466 4.81 1.016.339.55 1.505 1 2.59 1 1.084 0 2.23.675 2.547 1.5.317.825 1.47 1.5 2.563 1.5 1.172 0 2.21.854 2.531 2.084.403 1.54.756 1.744 1.351.781.908-1.469 13.862-1.516 14.845-.053.314.467 5.746 1.4 12.07 2.071 6.326.672 11.626 1.573 11.779 2.003.373 1.05 3.222 1.004 3.222-.05zm-178-72.21c0-7.334.976-11.624 2.644-11.624.965 0 1.212-.725.802-2.358-.737-2.94 1.834-9.283 4.809-11.863 2.175-1.886 2.185-1.985.357-3.322-1.43-1.045-1.753-2.174-1.336-4.668 1.084-6.482 2.49-8.781 5.451-8.905 1.693-.07 2.093-.295 1.026-.573-.963-.252-1.75-.875-1.75-1.384 0-1.415-1.964-1.105-3.643.573-.825.825-2.341 1.5-3.37 1.5-1.028 0-2.147.45-2.487 1-.34.55-1.723 1-3.073 1-1.35 0-3.362.562-4.471 1.25-1.663 1.03-2.185.986-2.971-.25-.734-1.156-.957-1.189-.969-.143-.008.793-.637 1.118-1.514.781-.825-.316-1.5-.118-1.5.44 0 .56-1.913 2.948-4.25 5.31-3.963 4.003-4.18 4.502-3.215 7.404.57 1.71 1.358 3.433 1.75 3.826 1.169 1.168.814 7.884-.484 9.182-.933.933-.711 1.2 1 1.2 1.21 0 2.2.45 2.2 1s.675 1 1.5 1 1.5.645 1.5 1.432c0 .788.9 1.719 2.001 2.068 1.1.35 2.5 1.617 3.11 2.818 1.956 3.85 5.366 8.668 6.14 8.675.411.003.75-2.413.75-5.37zm335-22.332c1.368-1.653 1.267-7.292-.132-7.292-1.463 0-.437-8.31 1.089-8.819 1.406-.469 3.37-4.315 5.95-11.657 1.14-3.24 2.42-6.147 2.849-6.458.927-.675 3.244-9.276 3.244-12.042 0-1.07 1.005-2.883 2.233-4.027 1.91-1.78 2.19-2.941 1.938-8.039-.219-4.4.047-5.958 1.016-5.956 1.005.002 1.236-1.985.989-8.5-.178-4.676.047-8.502.5-8.502.452 0 .823-6.455.823-14.344 0-11.241.323-14.733 1.491-16.143 1.136-1.372 1.427-4.028 1.22-11.157-.2-6.884.054-9.357.96-9.357.956 0 .962-.267.03-1.2-.66-.66-1.2-2.145-1.2-3.3 0-3.158-2.15-7.083-4.454-8.137-1.126-.516-1.935-1.483-1.797-2.15.138-.668-.392-1.214-1.177-1.214-.785 0-1.633-.788-1.885-1.75-.251-.963-.51-.063-.573 2-.118 3.822-2.128 5.138-3.816 2.5-1.069-1.67-4.057-1.825-4.665-.242-.327.854.173 1.094 1.538.737 1.778-.464 1.877-.296.822 1.394-1.53 2.45-12.77 8.427-15.775 8.39-1.255-.015-2.523.602-2.82 1.372-.785 2.048-7.174 1.842-7.73-.25-.24-.908-.49-.188-.553 1.6-.09 2.545-.55 3.25-2.116 3.25-1.1 0-2-.354-2-.786s-.9-.786-2-.786-2 .285-2 .633c0 1.963-4.148 4.746-8.5 5.703-8.751 1.924-17.5 5.335-17.5 6.824 0 .777.645 1.412 1.433 1.412.787 0 1.717.9 2.066 2 .35 1.1 1.06 2 1.582 2 1.545 0 4.91 6.285 4.914 9.178.002 1.474.68 3.354 1.504 4.18 1.699 1.698 2.126 11.642.5 11.642-.55 0-1 .45-1 1s.9 1 2 1c1.344 0 2 .667 2 2.031 0 1.118.653 2.282 1.45 2.588 2.057.79 4.892 8.729 4.057 11.358-.513 1.617.025 2.889 2.103 4.966 4.46 4.458 7.047 20.569 4.415 27.49-.633 1.667-.633 2.566 0 2.566.537 0 .976 1.098.976 2.44 0 1.343.427 2.706.949 3.028.521.323 1.746 3.274 2.721 6.56.975 3.284 2.349 5.972 3.052 5.972.848 0 1.278 1.513 1.278 4.5 0 2.475-.45 4.5-1 4.5s-1 .701-1 1.559c0 .857.42 1.3.932.983.512-.316 1.565.33 2.34 1.435.774 1.105 1.688 1.73 2.032 1.386 1.143-1.145 7.29 2.508 8.72 5.182l1.41 2.635 1.783-2.34a144.77 144.77 0 0 1 2.783-3.549zm-359.92-69.077c.05.843.272.769.642-.214 1.332-3.547 4.729-7.19 8.494-9.11 5.422-2.767 12.55-4.866 16.565-4.88 1.868-.005 3.511-.608 3.814-1.398.294-.763 1.86-1.653 3.48-1.977 1.62-.323 4.29-2.118 5.932-3.988 1.642-1.87 4.45-3.997 6.24-4.726 1.79-.73 3.712-1.93 4.272-2.666 1.062-1.398 13.998-3.67 15.524-2.728.482.298 1.682.129 2.667-.376a157.62 157.62 0 0 1 4.414-2.135c1.681-.78 3.01-2.526 3.704-4.865 1.422-4.798 3.438-18.847 3.25-22.65-.081-1.65.264-3.9.767-5 .505-1.1 1.702-4.024 2.662-6.5 2.8-7.222 8.803-19.435 9.945-20.234.62-.433.332-.74-.7-.749-2.67-.022-2.478-9.287.25-12.014 1.1-1.1 2-2.914 2-4.031 0-1.118.674-2.29 1.5-2.607 1.05-.404 1.5-2.042 1.5-5.47 0-3.682.37-4.892 1.5-4.892.824 0 1.5-.707 1.5-1.572 0-.864.678-2.25 1.508-3.08.83-.83 1.224-1.97.875-2.535-.978-1.584 1.758-8.814 3.335-8.814.77 0 1.12-.45.78-1-.339-.55.085-1 .942-1 1.13 0 1.56-1.014 1.56-3.68 0-3.904 3.843-16.591 5.196-17.153.442-.184.803-1.277.803-2.43 0-1.152.55-3.616 1.222-5.475.897-2.48 1.695-3.255 3-2.914 1.403.367 1.778-.149 1.778-2.442 0-1.598-.5-2.906-1.11-2.906-1.101 0-.875-3.07.7-9.483.696-2.835.646-2.896-1.01-1.24-.958.958-2.155 1.486-2.66 1.173-.506-.312-.92.253-.92 1.257 0 2.09-8.11 7.19-14.75 9.277-2.338.735-4.25 1.714-4.25 2.176 0 1.983-2.008.628-2.09-1.41-.068-1.69-.331-1.413-1.057 1.108-.566 1.964-1.774 3.57-2.91 3.867-1.07.28-1.944 1.129-1.944 1.886 0 1.754-7.714 7.39-10.115 7.39-.997 0-2.295.9-2.884 2s-1.846 2-2.795 2c-.947 0-2.285.9-2.972 2-.687 1.1-1.834 2-2.55 2-.716 0-2.85 1.79-4.742 3.977-1.892 2.188-4.175 3.988-5.073 4-.899.013-1.885.982-2.191 2.155-.41 1.567-1.104 1.99-2.617 1.594-1.132-.297-2.06-.083-2.06.474 0 .558-.637.77-1.416.47-.78-.3-1.676.126-1.99.945-.322.841-.14 1.224.417.879.544-.337.99.12.99 1.014 0 1.585-6.534 8.492-8.032 8.492-.414 0-1.02 1.071-1.35 2.38-.328 1.31-1.502 2.618-2.608 2.907-1.106.29-2.01 1.243-2.01 2.12 0 .876-.422 1.593-.937 1.593s-1.948 1.8-3.184 4c-1.237 2.2-2.615 4-3.064 4-.449 0-.816.675-.816 1.5s-.9 2.4-2 3.5c-1.1 1.1-2 3.124-2 4.498 0 2.357-6.912 11.117-7.07 8.96-.039-.527-.428-.058-.864 1.042-.445 1.124-.374 2.27.164 2.616 1.115.72-1.99 11.85-3.735 13.384-.624.55-1.728 3.812-2.451 7.25-.78 3.694-1.837 6.25-2.587 6.25-.783 0-1.067.777-.74 2.025.71 2.72-1.69 11.028-3.372 11.674-.74.284-1.344 1.368-1.344 2.409 0 1.04-.466 1.893-1.035 1.893-.676 0-.634.748.121 2.16 1.534 2.864.465 11.575-1.715 13.984-1.819 2.01-1.926 2.896-2.297 18.856-.304 13.072-.444 12.27 1.928 11 1.515-.81 2.02-.759 2.079.215zm135.884-49.934c1.345.352 1.662.007 1.293-1.407-.44-1.683.142-1.874 5.706-1.874 4.33 0 8.757-.904 14.696-3 4.675-1.65 9.476-2.999 10.67-2.997 2.906.002 15.727-2.917 17.906-4.079.955-.508 2.363-.924 3.128-.924.765 0 1.951-.675 2.636-1.5.685-.825 1.865-1.5 2.622-1.5.758 0 1.378.675 1.378 1.5s.388 1.5.861 1.5c.474 0 .648-1.12.386-2.488-.344-1.8.04-2.666 1.389-3.135 1.025-.356 5.24-1.97 9.364-3.586 5.86-2.295 8.737-2.867 13.157-2.614 3.112.177 5.448-.015 5.191-.427-.256-.413.043-.75.664-.75 1.798 0 3.988-2.674 3.988-4.87 0-1.107.407-2.263.904-2.57.498-.308.048-2.813-1-5.57-1.047-2.757-1.904-5.95-1.904-7.097 0-2.58-2.756-7.596-5.75-10.466-1.237-1.187-2.25-3.08-2.25-4.21 0-1.128-.488-2.214-1.085-2.413-.595-.198-1.917-3.86-2.936-8.138-1.02-4.278-2.967-9.679-4.33-12.002-1.36-2.324-2.79-5.899-3.173-7.945-.383-2.045-1.215-3.72-1.85-3.72-1.456 0-4.624-7.198-4.624-10.506 0-1.372.563-2.51 1.25-2.53.688-.02.074-1.032-1.363-2.25-3.683-3.12-5.613-6.577-6.26-11.214-.307-2.2-1.024-5.572-1.593-7.494-1.396-4.716-1.303-8.73.216-9.344.747-.301.545-.536-.5-.583-1.064-.048-1.75-.872-1.75-2.104 0-1.228-.964-2.39-2.452-2.956-3.24-1.232-5.908-6.45-5.048-9.874.364-1.452.342-2.32-.05-1.927-.392.392-1.441.326-2.331-.146-1.616-.857-4.603 1.112-3.444 2.27.306.305-.387 2.501-1.54 4.88-1.151 2.38-2.39 5.891-2.754 7.803-.364 1.912-.997 3.926-1.408 4.476-.41.55-1.055 2.877-1.434 5.172-.381 2.315-1.368 4.432-2.216 4.758-.884.34-1.28 1.238-.937 2.13.327.85.2 1.3-.282 1.003-.48-.298-1.109.354-1.395 1.449-.286 1.093-.112 1.736.386 1.428 2.223-1.374-.78 7.937-3.084 9.558-1.245.877-1.764 3.45-1.007 5 .401.825.4 6.085-.002 11.69-.551 7.654-1.265 11.09-2.868 13.807-1.174 1.99-2.134 4.491-2.134 5.56 0 1.069-.562 1.978-1.25 2.022-1 .063-1 .18 0 .583 1.428.576 1.774 10.338.367 10.338-.486 0-1.21 1.012-1.609 2.25-.686 2.128-.762 2.087-1.409-.75l-.684-3-.658 3.136c-.363 1.725-2.032 4.637-3.708 6.473-1.881 2.06-3.09 4.495-3.157 6.364-.06 1.664-.172 5.819-.25 9.232-.112 4.939-.548 6.504-2.13 7.662-1.094.8-2.331 1.243-2.75.984-1.2-.742-.886 3.474.414 5.557 1.75 2.802-.968 9.478-4.038 9.92-1.54.222-2.104.812-1.724 1.802.318.828.132 1.205-.423.862-.974-.603-1.392 1.315-1.04 4.766.1.968-.781 2.982-1.956 4.476-1.246 1.582-1.69 2.865-1.066 3.073.59.197 1.124 1.108 1.188 2.024.096 1.374.2 1.343.591-.177.305-1.183 1.113-1.676 2.257-1.377zm149.43-52.11c.282-.455 3.121-1.428 6.31-2.16 3.188-.733 6.224-1.71 6.746-2.171.523-.462 1.948-.84 3.167-.84 1.219 0 2.366-.38 2.55-.844.183-.463 1.994-1.106 4.024-1.426 2.926-.462 3.782-.236 4.134 1.094.295 1.115.483.883.56-.689.09-1.826.559-2.252 2.051-1.861 1.12.291 2.162-.081 2.47-.885.293-.764 1.138-1.39 1.876-1.39.739 0 2.215-.8 3.281-1.78 2.086-1.916 12.549-6.198 15.278-6.252 3.227-.065 8.332-5.967 5.16-5.967-.55 0-1.009-.563-1.02-1.25-.013-.688-1.459-1.925-3.214-2.75-2.196-1.033-3.44-2.492-3.989-4.682-.556-2.225-1.47-3.278-3.035-3.5-1.583-.225-2.33-1.104-2.55-3.002-.236-2.047-1.006-2.837-3.25-3.33-3.53-.775-11.138-8.345-10.603-10.55.254-1.046-.298-1.543-1.666-1.5-1.225.038-2.27-.738-2.607-1.936-.365-1.292-1.6-2.122-3.49-2.345-2.606-.306-10.542-5.458-11.407-7.404-.184-.413-.94-.75-1.683-.75-.742 0-1.604-.804-1.916-1.787-.312-.984-1.58-1.86-2.818-1.948-4.736-.335-8.75-1.395-8.75-2.311 0-.524-.527-.954-1.171-.954s-1.882-.597-2.75-1.328c-.869-.73-3.423-1.852-5.677-2.494-2.254-.642-5.315-2.295-6.802-3.673-1.487-1.377-3.144-2.504-3.684-2.504-.54 0-1.349-.996-1.799-2.212-.625-1.69-1.68-2.243-4.468-2.34-3.534-.122-4.702.783-2.65 2.052.55.34 1 4.191 1 8.559 0 6.307.302 7.94 1.466 7.94 3.139 0 4.955 9.182 2.336 11.8-.933.934-.878 1.207.25 1.227.798.014 2.316 1.926 3.375 4.25 1.06 2.323 2.916 5.574 4.127 7.224 1.21 1.65 2.718 4.615 3.35 6.589.63 1.973 2.281 5.123 3.667 7 1.673 2.265 2.33 4.167 1.957 5.66-.398 1.594-.118 2.25.957 2.25.835 0 1.52.382 1.52.848s.89 1.874 1.978 3.128c2.682 3.094 3.54 8.36 1.976 12.135-.761 1.84-.9 3.34-.343 3.733.511.362 1.473 1.895 2.138 3.408 1.2 2.734 2.666 3.506 3.645 1.92z" />
	</g>
</svg>
