<svg xmlns="http://www.w3.org/2000/svg" width="50" height="50" viewBox="0 0 50 50">
  <path class="uk-text-primary" fill="#ffd49b" d="M4.57,39A24.5,24.5,0,0,0,48.26,18Z"/>
  <path fill="#262626" d="M25,0A25,25,0,1,0,50,25,25,25,0,0,0,25,0Zm9.85,16.17a9.58,9.58,0,0,1,6.5,9,9.7,9.7,0,0,1-9.65,9.46,9.5,9.5,0,0,1-5.82-2l-.23-.15.05-8.14,5.84-3a.6.6,0,0,0,.39-.44.52.52,0,0,0-.1-.48.6.6,0,0,0-.43-.36.51.51,0,0,0-.49.11L25.7,22.81V16.17a.65.65,0,0,0-1.3,0V28.31l-6.49-3.39a.66.66,0,0,0-.61,1.18h0l7.1,3.75v2.66l-.24.16A9.54,9.54,0,1,1,15.1,16.13l.4-.13v-.36a9.36,9.36,0,0,1,3.05-6.2,9.53,9.53,0,0,1,16,6.19V16ZM25.62,48.68V34.21l.68.38a10.5,10.5,0,0,0,4.26,1.32,11.17,11.17,0,0,0,8.5-2.84,10.76,10.76,0,0,0,2.68-3.75A10.88,10.88,0,0,0,36.08,15h0l-.23-.08-.08-.3A10.4,10.4,0,0,0,32.4,8.25,10.92,10.92,0,0,0,14.21,14.6l-.08.33L14,15a11,11,0,0,0,8.17,20.43,11.6,11.6,0,0,0,1.5-.74l.68-.38V48.68A23.69,23.69,0,1,1,25,1.3h0a23.69,23.69,0,0,1,.62,47.38Z"/>
  <path fill="#262626" d="M28.61,42.89h0l.15-.16c.16-.18.32-.35.47-.53l.41-.48a1.75,1.75,0,0,0,.46-1A1.07,1.07,0,0,0,30,40.2a1.09,1.09,0,0,0-.41-.36,1.38,1.38,0,0,0-.63-.14,1.43,1.43,0,0,0-.58.12,1,1,0,0,0-.42.33.82.82,0,0,0-.17.5v.21c0,.06,0,.08.09.08h.45c.06,0,.09,0,.09-.08v-.12a.51.51,0,0,1,.15-.37.56.56,0,0,1,.39-.13.57.57,0,0,1,.4.13.48.48,0,0,1,.16.36,1.62,1.62,0,0,1-.49.86l-.34.4c-.39.45-.67.77-.84.94a.17.17,0,0,0,0,.1v.36s0,.07.06.08h2.27c.06,0,.08,0,.08-.08V43a.08.08,0,0,0-.08-.08Z"/>
  <path fill="#262626" d="M31.92,39.65A1.23,1.23,0,0,0,31,40a1.1,1.1,0,0,0-.32.84v1.5a1.16,1.16,0,0,0,.32.85,1.39,1.39,0,0,0,1.78,0,1.08,1.08,0,0,0,.33-.85v-1.5a1.07,1.07,0,0,0-.33-.84A1.25,1.25,0,0,0,31.92,39.65Zm.61,2.69a.57.57,0,0,1-.17.44.6.6,0,0,1-.44.16.56.56,0,0,1-.43-.16.57.57,0,0,1-.17-.44V40.79a.57.57,0,0,1,.17-.44.56.56,0,0,1,.43-.16.6.6,0,0,1,.44.16.57.57,0,0,1,.17.44Z"/>
  <path fill="#262626" d="M34.23,39.7a.17.17,0,0,0-.1,0l-.52.23a.11.11,0,0,0-.06.1v.31a.06.06,0,0,0,0,.06h0l.5-.14h0v3a.08.08,0,0,0,.08.08h.45s.07,0,.08-.06v-3.5c0-.06,0-.08-.08-.08Z"/>
  <path fill="#262626" d="M37.63,41.81a.69.69,0,0,0-.3-.35h0a1.28,1.28,0,0,0,.28-.29.85.85,0,0,0,.13-.47,1,1,0,0,0-.12-.48.9.9,0,0,0-.41-.41,1.38,1.38,0,0,0-.63-.14,1.52,1.52,0,0,0-.59.12.91.91,0,0,0-.41.34.86.86,0,0,0-.17.56,1,1,0,0,0,.14.5.84.84,0,0,0,.26.27h0a1,1,0,0,0-.29.34,1.19,1.19,0,0,0,0,1.1,1,1,0,0,0,.42.42,1.2,1.2,0,0,0,.62.14,1.3,1.3,0,0,0,.64-.14.94.94,0,0,0,.4-.39,1.18,1.18,0,0,0,.14-.58A1.12,1.12,0,0,0,37.63,41.81Zm-.61.91a.49.49,0,0,1-.18.17.57.57,0,0,1-.26,0,.53.53,0,0,1-.46-.23A.77.77,0,0,1,36,42.3a.87.87,0,0,1,.06-.32.52.52,0,0,1,.49-.3A.51.51,0,0,1,37,42a.81.81,0,0,1,.06.31.72.72,0,0,1-.1.43ZM37,41a.58.58,0,0,1-.81.13.8.8,0,0,1-.13-.13A.62.62,0,0,1,36,40.7a.53.53,0,0,1,.07-.3.44.44,0,0,1,.19-.19.53.53,0,0,1,.3-.07.59.59,0,0,1,.29.07.64.64,0,0,1,.2.2.67.67,0,0,1,.06.28.48.48,0,0,1-.05.31Z"/>
  <path fill="#262626" d="M16.58,39.69h-.51a.08.08,0,0,0-.08.07l-.58,2.34h0l-.59-2.34a.08.08,0,0,0-.1-.07h-.47a.08.08,0,0,0-.08.07l-.56,2.34h0L13,39.76a.08.08,0,0,0-.09-.07h-.52a0,0,0,0,0,0,.05h0l.94,3.47a.09.09,0,0,0,.09.08h.42a.09.09,0,0,0,.09-.08l.58-2.44h0l.6,2.44a.09.09,0,0,0,.09.08h.45a.1.1,0,0,0,.1-.08l.88-3.47A.08.08,0,0,0,16.58,39.69Z"/>
  <path fill="#262626" d="M18.91,41.5a4.41,4.41,0,0,0-.59-.26c-.23-.08-.4-.15-.51-.2a1.14,1.14,0,0,1-.25-.18.35.35,0,0,1-.08-.26.39.39,0,0,1,.15-.33.71.71,0,0,1,.45-.12.84.84,0,0,1,.55.17.51.51,0,0,1,.2.41v.06h.48c.06,0,.08,0,.08-.08h0a1,1,0,0,0-.16-.56,1.09,1.09,0,0,0-.47-.38,1.63,1.63,0,0,0-.69-.13,1.47,1.47,0,0,0-.88.26.88.88,0,0,0-.34.72.87.87,0,0,0,.16.52,1.18,1.18,0,0,0,.38.32,4,4,0,0,0,.6.26l.49.2a.92.92,0,0,1,.25.19.36.36,0,0,1,.09.24.48.48,0,0,1-.16.35.75.75,0,0,1-.48.14,1,1,0,0,1-.56-.16.49.49,0,0,1-.21-.4v-.08s0-.07-.06-.08H16.9s-.07,0-.08.06v.13a.89.89,0,0,0,.16.55,1.18,1.18,0,0,0,.46.37,1.9,1.9,0,0,0,1.38,0,1,1,0,0,0,.44-.36.83.83,0,0,0,.16-.53.79.79,0,0,0-.16-.51A1.07,1.07,0,0,0,18.91,41.5Z"/>
  <path fill="#262626" d="M22,40.88h.44c.06,0,.08,0,.08-.06a1.07,1.07,0,0,0-.62-1,1.59,1.59,0,0,0-.68-.14,1.57,1.57,0,0,0-.68.15,1.1,1.1,0,0,0-.46.42,1.2,1.2,0,0,0-.16.64v1.29a1.2,1.2,0,0,0,.16.64,1.1,1.1,0,0,0,.46.42,1.34,1.34,0,0,0,.68.16,1.44,1.44,0,0,0,.78-.2,1.07,1.07,0,0,0,.46-.41,1.13,1.13,0,0,0,.16-.62H22.1a.06.06,0,0,0-.06,0h0a.65.65,0,0,1-.19.49.78.78,0,0,1-1,0,.69.69,0,0,1-.19-.49V40.83a.66.66,0,0,1,.19-.5.81.81,0,0,1,1,0,.66.66,0,0,1,.19.5h0Z"/>
  <path fill="#262626" d="M14.69,44.11h-.1l-.12.5h0l-.13-.5h-.1l-.12.5h0l-.13-.5h-.11l.2.75h.13l.12-.53h0l.13.53h.14l.19-.75h-.1Z"/>
  <path fill="#262626" d="M15.66,44.11h-.1l-.12.5h0l-.13-.5h-.1l-.12.5h0l-.12-.5h-.12l.2.75h.13l.13-.53h0l.14.53h.13l.19-.75h-.11Z"/>
  <path fill="#262626" d="M16.63,44.11h-.1l-.12.5h0l-.13-.5h-.1l-.12.5h0l-.12-.5h-.12l.2.75h.13l.13-.53h0l.13.53h.13l.19-.75h-.1Z"/>
  <path fill="#262626" d="M16.75,44.72a.08.08,0,0,0-.08.1.08.08,0,0,0,0,0,.06.06,0,0,0,.06,0,.09.09,0,0,0,.07,0v-.06a.06.06,0,0,0,0-.06A.09.09,0,0,0,16.75,44.72Z"/>
  <path fill="#262626" d="M17.81,44.11h-.1l-.13.5h0l-.13-.5h-.1l-.12.5h0l-.13-.5h-.2l.2.75h.13l.12-.53h0l.13.53h.14l.19-.75Z"/>
  <path fill="#262626" d="M18.32,44.51l-.13-.06h-.11v-.06a.09.09,0,0,1,0-.07h.09a.13.13,0,0,1,.12,0,.14.14,0,0,1,0,.09h.13a.24.24,0,0,0,0-.12.39.39,0,0,0-.1-.08h-.15a.31.31,0,0,0-.19.06.18.18,0,0,0-.08.15.21.21,0,0,0,0,.11.18.18,0,0,0,.08.07l.13.06h.16v.06a.09.09,0,0,1,0,.07h-.22s-.05,0-.05-.09h-.12a.24.24,0,0,0,0,.12.39.39,0,0,0,.1.08h.3a.24.24,0,0,0,.09-.08.13.13,0,0,0,0-.12.21.21,0,0,0,0-.11A.22.22,0,0,0,18.32,44.51Z"/>
  <path fill="#262626" d="M19,44.37h.1a.16.16,0,0,0-.1-.22h-.3l-.1.1a.29.29,0,0,0,0,.13v.28a.33.33,0,0,0,0,.14.28.28,0,0,0,.1.09H19a.16.16,0,0,0,.1-.22H19a.17.17,0,0,1,0,.1h-.22a.17.17,0,0,1,0-.1v-.29a.12.12,0,1,1,.22,0h0Z"/>
  <path fill="#262626" d="M19.31,44.72a.09.09,0,1,0,0,.18h.07a.08.08,0,0,0,0-.1l0,0A.11.11,0,0,0,19.31,44.72Z"/>
  <path fill="#262626" d="M20,44.37h.09a.16.16,0,0,0-.1-.22h-.3l-.1.1a.29.29,0,0,0,0,.13v.28a.33.33,0,0,0,0,.14.28.28,0,0,0,.1.09H20a.16.16,0,0,0,.1-.22H20a.17.17,0,0,1,0,.1h-.22a.17.17,0,0,1,0-.1v-.29a.12.12,0,1,1,.22,0h0Z"/>
  <path fill="#262626" d="M20.65,44.14H20.5a.19.19,0,0,0-.15,0,.22.22,0,0,0-.1.09.33.33,0,0,0,0,.14v.26a.33.33,0,0,0,0,.14.17.17,0,0,0,.1.1.38.38,0,0,0,.15,0,.38.38,0,0,0,.15,0,.24.24,0,0,0,.1-.1.33.33,0,0,0,0-.14v-.26a.33.33,0,0,0,0-.14A.28.28,0,0,0,20.65,44.14Zm0,.5a.14.14,0,0,1-.13.15h0a.13.13,0,0,1-.12,0,.21.21,0,0,1,0-.11v-.27a.21.21,0,0,1,0-.11h.23a.11.11,0,0,1,0,.11Z"/>
  <path fill="#262626" d="M21.44,44.11h0l-.17.28h0l-.18-.28H21v.75h.13v-.53h0l.14.22h0l.13-.22h0v.53h.13v-.75h-.06Z"/>
</svg>