<svg xmlns="http://www.w3.org/2000/svg" width="100" height="50" viewBox="0 0 100 50">
  <path class="uk-text-primary" fill="#ffd49b" d="M99.64,45.36a11.82,11.82,0,0,1-9,4.25,11.14,11.14,0,0,1-8.8-4.25V5.84S83.69.43,90.63.43s9,5.19,9,5.19Z"/>
  <path fill="#262626" d="M90.84,1.7c-3.67,0-6.64,1.6-6.64,3.57s3,3.58,6.64,3.58,6.63-1.6,6.63-3.58S94.5,1.7,90.84,1.7Zm0,6.27c-3.4,0-5.76-1.42-5.76-2.7s2.36-2.69,5.76-2.69S96.6,4,96.6,5.27,94.23,8,90.84,8Z"/>
  <path fill="#262626" d="M96.16,10.94a.44.44,0,0,0-.44.44h0V25.19a.44.44,0,1,0,.87.13.29.29,0,0,0,0-.13V11.38A.44.44,0,0,0,96.16,10.94Z"/>
  <path fill="#262626" d="M96.16,27.16a.44.44,0,0,0-.44.44h0v4.88a.44.44,0,0,0,.87.13.29.29,0,0,0,0-.13V27.6A.44.44,0,0,0,96.16,27.16Z"/>
  <path fill="#262626" d="M96.16,34.62a.44.44,0,0,0-.44.44h0v9.38a.44.44,0,0,0,.87.13.29.29,0,0,0,0-.13V35.06A.44.44,0,0,0,96.16,34.62Z"/>
  <path fill="#262626" d="M91.57,29.63a.44.44,0,0,0-.44.44h0V43.88a.44.44,0,0,0,.44.44.44.44,0,0,0,.44-.44h0V30.07A.44.44,0,0,0,91.57,29.63Z"/>
  <path fill="#262626" d="M89.07,19.48a.44.44,0,0,0-.44.44h0V33.73a.44.44,0,0,0,.88,0V19.92A.44.44,0,0,0,89.07,19.48Z"/>
  <path fill="#262626" d="M85.56,26a.44.44,0,0,0-.44.44h0v9.33a.44.44,0,1,0,.88,0V26.46a.44.44,0,0,0-.42-.46Z"/>
  <path fill="#262626" d="M99.82,5.15v-.3h0C99.44,2.14,95.57,0,90.84,0s-8.6,2.14-9,4.85h0v41s2.63,4.22,9,4.22,9-4.22,9-4.22V5.27A.27.27,0,0,0,99.82,5.15ZM99,45.5a9.77,9.77,0,0,1-8.08,3.62,11.24,11.24,0,0,1-4.88-1L86,48V38.67a.44.44,0,0,0-.88,0v8.94a8.43,8.43,0,0,1-2.38-2.11V7.55a7,7,0,0,0,2.45,1.81V22.92a.44.44,0,0,0,.44.44h0a.43.43,0,0,0,.43-.43h0V9.73a14.11,14.11,0,0,0,4.78.8c3.57,0,6.66-1.22,8.11-3ZM90.84,9.65c-4.4,0-8.12-2-8.12-4.38S86.44.88,90.84.88,99,2.89,99,5.27,95.24,9.65,90.84,9.65Z"/>
  <path fill="#262626" d="M91.62,13.91a.44.44,0,0,0-.44.44h0v9.33a.44.44,0,0,0,.44.44h0a.44.44,0,0,0,.43-.44V14.35A.44.44,0,0,0,91.62,13.91Z"/>
  <path class="uk-text-primary" fill="#ffd49b" d="M17.81,45.36a11.82,11.82,0,0,1-9,4.25A11.13,11.13,0,0,1,0,45.36V5.84S1.86.43,8.8.43s9,5.19,9,5.19Z"/>
  <path fill="#262626" d="M9,1.7c-3.67,0-6.64,1.6-6.64,3.57S5.34,8.85,9,8.85s6.63-1.6,6.63-3.58S12.67,1.7,9,1.7ZM9,8C5.6,8,3.24,6.58,3.24,5.3S5.61,2.58,9,2.58,14.77,4,14.77,5.27,12.4,8,9,8Z"/>
  <path fill="#262626" d="M14.33,10.94a.44.44,0,0,0-.44.44V25.19a.44.44,0,0,0,.44.44h0a.44.44,0,0,0,.43-.44V11.38A.44.44,0,0,0,14.33,10.94Z"/>
  <path fill="#262626" d="M14.33,27.16a.44.44,0,0,0-.44.44h0v4.88a.44.44,0,0,0,.44.44.43.43,0,0,0,.43-.43h0V27.6A.44.44,0,0,0,14.33,27.16Z"/>
  <path fill="#262626" d="M14.33,34.62a.44.44,0,0,0-.44.44v9.38a.44.44,0,0,0,.44.44.43.43,0,0,0,.43-.43h0V35.06A.44.44,0,0,0,14.33,34.62Z"/>
  <path fill="#262626" d="M9.74,29.63a.44.44,0,0,0-.44.44h0V43.88a.44.44,0,0,0,.88,0V30.07a.44.44,0,0,0-.44-.44Z"/>
  <path fill="#262626" d="M7.24,19.48a.44.44,0,0,0-.44.44h0V33.73a.44.44,0,0,0,.88,0V19.92a.44.44,0,0,0-.44-.44Z"/>
  <path fill="#262626" d="M3.73,26a.44.44,0,0,0-.44.44h0v9.33a.44.44,0,0,0,.88,0h0V26.46A.44.44,0,0,0,3.75,26Z"/>
  <path fill="#262626" d="M18,5.15v-.3h0C17.61,2.14,13.74,0,9,0S.41,2.14.05,4.85H0v41S2.66,50,9,50s9-4.22,9-4.22ZM17.12,45.5A9.79,9.79,0,0,1,9,49.12a11.24,11.24,0,0,1-4.88-1V38.67a.44.44,0,1,0-.88,0v8.94A8.53,8.53,0,0,1,.91,45.5V7.55A7,7,0,0,0,3.36,9.36V22.92a.44.44,0,0,0,.44.44h0a.43.43,0,0,0,.43-.43h0V9.73a14.11,14.11,0,0,0,4.78.8c3.58,0,6.66-1.22,8.11-3ZM9,9.65c-4.4,0-8.12-2-8.12-4.38S4.61.88,9,.88s8.12,2,8.12,4.39S13.41,9.65,9,9.65Z"/>
  <path fill="#262626" d="M9.79,13.91a.44.44,0,0,0-.44.44v9.33a.44.44,0,1,0,.88,0V14.35a.44.44,0,0,0-.44-.44Z"/>
  <path class="uk-text-primary" fill="#ffd49b" d="M45.09,45.36a11.82,11.82,0,0,1-9,4.25,11.09,11.09,0,0,1-8.79-4.25V5.84S29.14.43,36.07.43s9,5.19,9,5.19Z"/>
  <path fill="#262626" d="M36.29,1.7c-3.67,0-6.64,1.6-6.64,3.57s3,3.58,6.64,3.58,6.63-1.6,6.63-3.58S40,1.7,36.29,1.7Zm0,6.27c-3.4,0-5.77-1.42-5.77-2.7s2.37-2.69,5.77-2.69S42.05,4,42.05,5.27,39.68,8,36.29,8Z"/>
  <path fill="#262626" d="M41.6,10.94a.44.44,0,0,0-.43.44V25.19a.44.44,0,1,0,.87,0V11.38A.44.44,0,0,0,41.6,10.94Z"/>
  <path fill="#262626" d="M41.6,27.16a.44.44,0,0,0-.43.44v4.88a.43.43,0,0,0,.42.44h0a.44.44,0,0,0,.44-.44V27.6A.44.44,0,0,0,41.6,27.16Z"/>
  <path fill="#262626" d="M41.6,34.62a.44.44,0,0,0-.43.44v9.38a.43.43,0,0,0,.42.44h0a.44.44,0,0,0,.44-.44V35.06a.44.44,0,0,0-.44-.44Z"/>
  <path fill="#262626" d="M37,29.63a.44.44,0,0,0-.44.44V43.88a.44.44,0,0,0,.44.44.43.43,0,0,0,.43-.43h0V30.07A.44.44,0,0,0,37,29.63Z"/>
  <path fill="#262626" d="M34.52,19.48a.44.44,0,0,0-.44.44V33.73a.44.44,0,1,0,.87,0V19.92A.44.44,0,0,0,34.52,19.48Z"/>
  <path fill="#262626" d="M31,26a.44.44,0,0,0-.44.44h0v9.33a.44.44,0,1,0,.87,0V26.46A.44.44,0,0,0,31,26Z"/>
  <path fill="#262626" d="M45.27,5.15v-.3h0C44.89,2.14,41,0,36.29,0s-8.61,2.14-9,4.85h0v41s2.62,4.22,9,4.22,9-4.22,9-4.22V5.27S45.27,5.19,45.27,5.15ZM44.4,45.5a9.83,9.83,0,0,1-8.09,3.62,11.2,11.2,0,0,1-4.87-1V38.67a.43.43,0,0,0-.42-.44h0a.44.44,0,0,0-.44.44v8.94a8.61,8.61,0,0,1-2.39-2.11V7.55a7.21,7.21,0,0,0,2.46,1.81V22.92a.44.44,0,0,0,.87.13.29.29,0,0,0,0-.13V9.73a14.11,14.11,0,0,0,4.78.8c3.57,0,6.66-1.22,8.11-3ZM36.29,9.65c-4.41,0-8.12-2-8.12-4.38S31.88.88,36.29.88s8.11,2,8.11,4.39S40.69,9.65,36.29,9.65Z"/>
  <path fill="#262626" d="M37.07,13.91a.44.44,0,0,0-.44.44v9.33a.44.44,0,0,0,.87.13.29.29,0,0,0,0-.13V14.35A.44.44,0,0,0,37.07,13.91Z"/>
  <path class="uk-text-primary" fill="#ffd49b" d="M72.36,45.36a11.82,11.82,0,0,1-9,4.25,11.14,11.14,0,0,1-8.8-4.25V5.84S56.42.43,63.35.43s9,5.19,9,5.19Z"/>
  <path fill="#262626" d="M63.56,1.7c-3.66,0-6.63,1.6-6.63,3.57s3,3.58,6.63,3.58,6.64-1.6,6.64-3.58S67.23,1.7,63.56,1.7Zm0,6.27c-3.39,0-5.76-1.42-5.76-2.7s2.37-2.69,5.76-2.69S69.32,4,69.32,5.27,67,8,63.56,8Z"/>
  <path fill="#262626" d="M68.88,10.94a.44.44,0,0,0-.44.44h0V25.19a.44.44,0,0,0,.88,0V11.38A.44.44,0,0,0,68.88,10.94Z"/>
  <path fill="#262626" d="M68.88,27.16a.44.44,0,0,0-.44.44h0v4.88a.44.44,0,0,0,.44.44.44.44,0,0,0,.44-.44h0V27.6A.44.44,0,0,0,68.88,27.16Z"/>
  <path fill="#262626" d="M68.88,34.62a.44.44,0,0,0-.44.44h0v9.38a.44.44,0,0,0,.88,0V35.06A.44.44,0,0,0,68.88,34.62Z"/>
  <path fill="#262626" d="M64.29,29.63a.44.44,0,0,0-.43.44V43.88a.43.43,0,0,0,.42.44h0a.44.44,0,0,0,.44-.44h0V30.07a.44.44,0,0,0-.44-.44Z"/>
  <path fill="#262626" d="M61.79,19.48a.44.44,0,0,0-.43.44V33.73a.44.44,0,1,0,.87,0V19.92A.44.44,0,0,0,61.79,19.48Z"/>
  <path fill="#262626" d="M58.28,26a.44.44,0,0,0-.43.44v9.33a.44.44,0,0,0,.87.13.29.29,0,0,0,0-.13V26.46A.44.44,0,0,0,58.3,26Z"/>
  <path fill="#262626" d="M72.55,5.15v-.3h0C72.16,2.14,68.29,0,63.56,0s-8.6,2.14-9,4.85h0v41s2.62,4.22,9,4.22,9-4.22,9-4.22V5.15ZM71.67,45.5a9.77,9.77,0,0,1-8.08,3.62,11.24,11.24,0,0,1-4.88-1V38.67a.44.44,0,0,0-.87-.13.29.29,0,0,0,0,.13v8.94a8.61,8.61,0,0,1-2.39-2.11V7.55A7.18,7.18,0,0,0,57.9,9.36V22.92a.44.44,0,1,0,.88,0V9.73a14.1,14.1,0,0,0,4.77.8c3.58,0,6.67-1.22,8.11-3ZM63.56,9.65c-4.4,0-8.12-2-8.12-4.38S59.16.88,63.56.88s8.12,2,8.12,4.39S68,9.65,63.56,9.65Z"/>
  <path fill="#262626" d="M64.34,13.91a.44.44,0,0,0-.44.44v9.33a.44.44,0,0,0,.88,0V14.35a.44.44,0,0,0-.44-.44Z"/>
</svg>