<svg xmlns="http://www.w3.org/2000/svg" width="60" height="50" viewBox="0 0 60 50">
    <polygon class="uk-text-primary" fill="#ffd49b" points="11.98 20.73 47.05 20.88 43.71 23.16 42.08 25.44 39.76 27.87 37.27 29.46 36.34 32.57 35.49 33.79 34.4 32.8 33.86 31.59 30.99 31.51 26.49 32.12 25.25 33.48 19.82 31.66 15.86 30.22 14.54 29.76 12.29 30.68 10.67 24.07 11.98 20.73"/>
    <path fill="#262626" d="M59.79,14l-2-4.69a2,2,0,0,0-1.84-1.2,2.07,2.07,0,0,0-1,.28.9.9,0,0,1-.45.13.89.89,0,0,1-.8-.49l-.29-.56A2,2,0,0,0,51.58,6.4H50.34a2,2,0,0,0-1.66.88L44.84,13a.38.38,0,0,1-.31.16l-.64,0a.34.34,0,0,1-.3-.19.33.33,0,0,1,0-.34,1.39,1.39,0,0,0,.1-1.19,1.42,1.42,0,0,0-.85-.86l-1.69-.64A1.54,1.54,0,0,1,40.26,9a1.44,1.44,0,0,1,.14-1.26,1.49,1.49,0,0,1,.8-.64l4.72-1.6a6.78,6.78,0,0,0,2.55-1.57,1.46,1.46,0,0,0,.34-1.66,1.54,1.54,0,0,0-1.43-.94l-.79.05a5.1,5.1,0,0,0-1.15.23l-2.72.89-8.31-.35a8.14,8.14,0,0,1-2.29-.43l-1.59-.55a9.22,9.22,0,0,0-5.87,0h0a8,8,0,0,1-2.52.4,7.8,7.8,0,0,1-1.66-.17L15.05.21A10.12,10.12,0,0,0,9.51.62L7.14,1.5A9.72,9.72,0,0,0,4.61,2.88L1.08,5.54A2.71,2.71,0,0,0,0,7.52a2.67,2.67,0,0,0,.8,2.1,3.08,3.08,0,0,0,.8.55l.61.27a2.85,2.85,0,0,0,2.11.09L8.63,9a3.63,3.63,0,0,1,2.92.23,3.93,3.93,0,0,1,2.09,3.46,15.29,15.29,0,0,1-2.19,7.87,7.46,7.46,0,0,0-1,5.05,52,52,0,0,0,2.77,10.24,1,1,0,0,0,.91.61,1,1,0,0,0,.93-.69l.25-.89s0,0,0,0,0,0,0,0l1.41,2.3a2,2,0,0,1,.29,1,3,3,0,0,0,1.37,2.53L22,43.08a3.37,3.37,0,0,0,1.85.55,2.83,2.83,0,0,0,.41,0,2.25,2.25,0,0,1,1.68.49l4.19,3.43,2.42,2.06a1.74,1.74,0,0,0,1.13.42,1.77,1.77,0,0,0,1.11-.39l1.72-1.4a.54.54,0,0,0,.18-.57.55.55,0,0,0-.46-.38L34.44,47l-1.81-1.23a.77.77,0,0,1-.28-.9l.08-.19A1.8,1.8,0,0,0,32.24,43a1.87,1.87,0,0,0-1.5-.82.77.77,0,0,1-.64-.36.77.77,0,0,1,0-.72l.78-1.6a1,1,0,0,0-.06-1,1.1,1.1,0,0,0-.91-.5,1,1,0,0,0-.54.15l-1.7,1a2.17,2.17,0,0,1-1.86.12,2,2,0,0,1-1.12-2.64l.76-1.86a4,4,0,0,1,3.37-2.44L32.37,32a1.84,1.84,0,0,1,1.92,1.25,1.22,1.22,0,0,0,2.31,0l.45-1.51a5.69,5.69,0,0,1,2.89-3.45,6.11,6.11,0,0,0,2.65-2.6l.13-.24a6,6,0,0,1,2.2-2.29L46.84,22a31.12,31.12,0,0,1,5.95-2.74,1.43,1.43,0,0,0,.92-1A1.37,1.37,0,0,0,53.39,17l-.51-.57a.17.17,0,0,1,0-.17.18.18,0,0,1,.14-.12l3-.66a.17.17,0,0,1,.19.08.17.17,0,0,1,0,.16A1.37,1.37,0,0,0,56.35,17a1.45,1.45,0,0,0,1.36.58,2.59,2.59,0,0,0,1.94-1.28A2.51,2.51,0,0,0,59.79,14ZM8.25,8,4,9.51a1.69,1.69,0,0,1-1.27,0l-.6-.27a1.78,1.78,0,0,1-.48-.33,1.65,1.65,0,0,1-.49-1.27A1.63,1.63,0,0,1,1.76,6.4L5.29,3.74A8.63,8.63,0,0,1,7.54,2.51L9.9,1.63A9,9,0,0,1,13,1.08a8.61,8.61,0,0,1,1.83.19L19,2.15,12.41,8.49a3.37,3.37,0,0,0-.32-.19A4.81,4.81,0,0,0,8.25,8ZM24.38,34.32l-.76,1.86a3.11,3.11,0,0,0,1.72,4,3.16,3.16,0,0,0,1.24.25A3.33,3.33,0,0,0,28.19,40l1.61-.92-.73,1.52a1.77,1.77,0,0,0,.09,1.74,1.87,1.87,0,0,0,1.54.88.8.8,0,0,1,.62.34.74.74,0,0,1,.08.69l-.08.2A1.8,1.8,0,0,0,32,46.65L33.91,48a.72.72,0,0,0,.24.1l.71.09-.76.62a.66.66,0,0,1-.82,0L30.86,46.7l-4.2-3.44a3.33,3.33,0,0,0-2.12-.75,2.88,2.88,0,0,0-.41,0,2.27,2.27,0,0,1-1.5-.35l-3.54-2.34a2,2,0,0,1-.89-1.63,3,3,0,0,0-.44-1.57l-1.41-2.3a1.15,1.15,0,0,0-1-.55,1.13,1.13,0,0,0-1.11.82l-.14.49c-.51-1.35-.95-2.72-1.34-4.11l2.08-.74L18,31.65l.07,0,6.65,2A4.48,4.48,0,0,0,24.38,34.32Zm20-12.13a7.07,7.07,0,0,0-2.6,2.72l-.13.25a5,5,0,0,1-2.18,2.13A6.8,6.8,0,0,0,36,31.4l-.44,1.51a.09.09,0,0,1-.1.07.1.1,0,0,1-.1-.07,3,3,0,0,0-2.82-2h-.25l-3.58.29a5.14,5.14,0,0,0-3.31,1.58l-7-2.13-3.28-1.47a.55.55,0,0,0-.42,0l-2.21.78c-.38-1.48-.69-3-.94-4.48a6.44,6.44,0,0,1,.73-4.12H45.76Zm14.35-6.43a1.51,1.51,0,0,1-1.13.74h-.05a.31.31,0,0,1-.29-.42,1.21,1.21,0,0,0-.15-1.15,1.29,1.29,0,0,0-1.34-.51l-3,.66a1.26,1.26,0,0,0-.94.84,1.23,1.23,0,0,0,.26,1.22l.52.57a.31.31,0,0,1,.07.28.33.33,0,0,1-.21.22,31.88,31.88,0,0,0-4.77,2.05H12.89a16.28,16.28,0,0,0,1.86-7.55,5,5,0,0,0-1.48-3.53l7.07-6.76a9,9,0,0,0,1.79.18A9.32,9.32,0,0,0,25,2.14h0a8,8,0,0,1,2.52-.4,8.1,8.1,0,0,1,2.63.43l1.59.55a9.27,9.27,0,0,0,2.61.49l8.41.35a.44.44,0,0,0,.2,0l2.82-.92a3.36,3.36,0,0,1,.88-.18l.71,0a.44.44,0,0,1,.41.27.4.4,0,0,1-.1.47,5.52,5.52,0,0,1-2.13,1.31L40.84,6.06a2.59,2.59,0,0,0-1.39,1.11,2.53,2.53,0,0,0-.24,2.16,2.61,2.61,0,0,0,1.54,1.56l1.69.65a.33.33,0,0,1,.21.21.36.36,0,0,1,0,.3,1.38,1.38,0,0,0,0,1.4,1.5,1.5,0,0,0,1.21.74l.62,0a1.49,1.49,0,0,0,1.31-.64l3.84-5.7a.88.88,0,0,1,.74-.39h1.24a.87.87,0,0,1,.79.48l.29.56a2,2,0,0,0,1.79,1.08,2,2,0,0,0,1-.28.94.94,0,0,1,.46-.13.88.88,0,0,1,.82.54l2,4.69A1.46,1.46,0,0,1,58.69,15.76Z"/>
</svg>