<svg
  xmlns="http://www.w3.org/2000/svg"
  viewBox="0 0 24 24"
  fill="none"
  stroke="currentColor"
  stroke-width="1"
  stroke-linecap="round"
  stroke-linejoin="round"
  stroke-miterlimit="10"
>
    <path d="M12,2.75"/>
    <path d="M12,2.75"/>
    <line x1="1" y1="7" x2="23" y2="7"/>
    <line x1="6.5" y1="9.5" x2="6.5" y2="20.5"/>
    <line x1="12" y1="9.5" x2="12" y2="20.5"/>
    <line x1="17.5" y1="9.5" x2="17.5" y2="20.5"/>
    <line x1="3.25" y1="12.25" x2="20.75" y2="12.25"/>
    <line x1="3.25" y1="17.5" x2="20.75" y2="17.5"/>
    <line x1="6.5" y1="4.5" x2="6.5" y2="0.5"/>
    <line x1="12" y1="4.5" x2="12" y2="0.5"/>
    <line x1="17.48" y1="4.5" x2="17.5" y2="0.5"/>
    <path d="M3.08,2.28H20.92A2.65,2.65,0,0,1,23.5,5V20.72a2.64,2.64,0,0,1-2.58,2.71H3.08A2.64,2.64,0,0,1,.5,20.72V5A2.65,2.65,0,0,1,3.08,2.28Z"/>
</svg>
