<svg
  xmlns="http://www.w3.org/2000/svg"
  viewBox="0 0 24 24"
  fill="none"
  stroke="currentColor"
  stroke-width="1"
  stroke-linecap="round"
  stroke-linejoin="round"
  stroke-miterlimit="10"
>
	<circle cx="12" cy="7" r="5.5"/>
	<path d="M8.8,15.1c-1.8,0.4-3.5,0.9-5.2,1.6c-1.3,0.7-2.2,2.1-2.2,3.6V21c0,0.8,0.7,1.5,1.5,1.5h8.5L8.8,15.1z"/>
	<path d="M20.3,16.7c-1.7-0.7-3.4-1.2-5.1-1.6l-2.7,7.4H21c0.8,0,1.5-0.7,1.5-1.5v-0.7C22.5,18.8,21.7,17.4,20.3,16.7z"/>
	<polyline points="13.5,19.5 13.5,15.5 12,14.5 10.5,15.5 10.5,19.5"/>
	<line x1="16.5" y1="19.5" x2="18.5" y2="19.5"/>
	<line x1="17.5" y1="18.5" x2="17.5" y2="20.5"/>
</svg>
