<svg
  xmlns="http://www.w3.org/2000/svg"
  viewBox="0 0 24 24"
  fill="none"
  stroke="currentColor"
  stroke-width="1"
  stroke-linecap="round"
  stroke-linejoin="round"
  stroke-miterlimit="10"
>
	<line x1="7.5" y1="20.5" x2="7.5" y2="19.5"/>
	<line x1="10.5" y1="20.5" x2="10.5" y2="19.5"/>
	<line x1="13.5" y1="20.5" x2="13.5" y2="19.5"/>
	<line x1="16.5" y1="20.5" x2="16.5" y2="19.5"/>
	<path d="M13,16.5v-3c0-0.6,0.4-1,1-1h0c0.6,0,1,0.4,1,1v3"/>
	<line x1="13" y1="15" x2="15" y2="15"/>
	<path d="M10,16.5H9v-4h1c0.6,0,1,0.4,1,1v2C11,16.1,10.6,16.5,10,16.5z"/>
	<line x1="10" y1="6.5" x2="14" y2="6.5"/>
	<path d="M10,9.5v-6"/>
	<path d="M14,9.5v-6"/>
	<path d="M20,23.5H4c-0.8,0-1.5-0.7-1.5-1.5V2c0-0.8,0.7-1.5,1.5-1.5h16c0.8,0,1.5,0.7,1.5,1.5v20
	C21.5,22.8,20.8,23.5,20,23.5z"/>
</svg>
