<svg
  xmlns="http://www.w3.org/2000/svg"
  viewBox="0 0 24 24"
  fill="none"
  stroke="currentColor"
  stroke-width="1"
  stroke-linecap="round"
  stroke-linejoin="round"
  stroke-miterlimit="10"
>
	<path d="M13.5,23.5h4v-5h3c0,0-0.2-0.9-2-10.5c-0.2-0.8-1.1-1.5-2.5-1.5S13.7,7.2,13.5,8"/>
	<circle cx="16" cy="2.5" r="2"/>
	<path d="M12.1,7.7C10.9,6.9,9.5,6.5,8,6.5S5.1,6.9,3.9,7.7C3.7,7.9,3.5,8.2,3.5,8.5v7h2v8h6"/>
	<circle cx="8" cy="2.5" r="2"/>
	<path d="M14.6,13.3c-0.1-0.5-0.4-0.9-1-0.9h-1.3h-1.3c-0.5,0-1,0.4-1,0.9l-0.7,4.3
		c0,0.3,0.3,0.7,0.7,0.7h0.7l0.3,5.2h2.6l0.3-5.2h0.7c0.3,0,0.7-0.3,0.7-0.7C15.3,17.6,14.6,13.3,14.6,13.3z"/>
	<circle cx="12.5" cy="9.5" r="1.5"/>
</svg>
