<svg
  xmlns="http://www.w3.org/2000/svg"
  viewBox="0 0 24 24"
  fill="none"
  stroke="currentColor"
  stroke-width="1"
  stroke-linecap="round"
  stroke-linejoin="round"
  stroke-miterlimit="10"
>
	<path d="
	M0.5,10.5l4.0723839,0.814477c0.5204272,0.104085,0.8688903,0.5966024,0.7938333,1.1220016L4.622654,17.6414223
	C4.5522757,18.1340694,4.1303549,18.5,3.6327045,18.5H0.5V10.5z"/>
	<path d="
	M5.5,12.5c0,0,1.4166665-0.5,3-0.5s2.4891291,1.0919971,4.5,1.5c2.15625,0.4375,3.5,0.9375,3.5,2s-1.625,1.59375-7,0"/>
	<path d="
	M16.5,16c0,0,3.25-1,4.5-1s2.5,0.5,2.5,1.5c-1.708334,0.75-7.666667,4-10,4s-8.5-3-8.5-3"/>
	<path d="
	M18,3.5c-0.8216553,0-1.5442505,0.4016724-2,1.0136719C15.5442505,3.9016724,14.8216553,3.5,14,3.5
	c-1.3807373,0-2.5,1.1192627-2.5,2.5c0,0.6903076,0.2798462,1.3153687,0.7322388,1.7677612L16,11.5l3.7677612-3.7322388
	C20.2201538,7.3153687,20.5,6.6903076,20.5,6C20.5,4.6192627,19.3807373,3.5,18,3.5z"/>
</svg>
