<svg
  xmlns="http://www.w3.org/2000/svg"
  viewBox="0 0 24 24"
  fill="none"
  stroke="currentColor"
  stroke-width="1"
  stroke-linecap="round"
  stroke-linejoin="round"
  stroke-miterlimit="10"
>
	<path d="M12,21.5c5,0,6.1-4.1,6.5-5c1.1,0,2-2.1,2-3c0-1-0.3-1.7-1-2c0-7-4.2-9-7.5-9s-7.5,2-7.5,9c-0.7,0.3-1,1-1,2
	c0,0.9,0.9,3,2,3C5.9,17.4,7,21.5,12,21.5z"/>
	<path d="M8,12.1c0.8,1.4,2.3,2.4,4,2.4c2.5,0,4.5-2,4.5-4.5l-1.2,1.5"/>
	<path d="M16,7.9c-0.8-1.4-2.3-2.4-4-2.4c-2.5,0-4.5,2-4.5,4.5l1.2-1.5"/>
</svg>
