<svg
  xmlns="http://www.w3.org/2000/svg"
  viewBox="0 0 24 24"
  fill="none"
  stroke="currentColor"
  stroke-width="1"
  stroke-linecap="round"
  stroke-linejoin="round"
  stroke-miterlimit="10"
>
	<path  d="M5.9,20.4c-0.4,0-0.4,0.2-0.7,0.5c-0.4-0.2-0.8-0.6-0.8-1.2c0-0.7,0.6-1.3,1.3-1.3h1.2c0.4,0,0.6-0.3,0.6-0.6
		v-1.9c0-0.3,0.2-0.4,0.4-0.4h2.6v5.1l0,0v-5.1H16c0.3,0,0.4,0.2,0.4,0.4v1.9c0,0.4,0.3,0.6,0.6,0.6h1.1c0.7,0,1.3,0.6,1.3,1.3
		c0,0.5-0.3,1-0.8,1.2c-0.3-0.3-0.3-0.5-0.7-0.5h-0.3c-0.4,0-0.6,0.3-0.6,0.6v1.1c0,0.1-0.1,0.3-0.1,0.3c-0.1,0.1-0.2,0.1-0.3,0.1
		H7.5c-0.1,0-0.3-0.1-0.3-0.1c-0.1,0-0.2-0.2-0.2-0.3V21c0-0.4-0.3-0.6-0.6-0.6H5.9z"/>
	<path  d="M6.7,13.4c-0.4,0-0.7,0.2-1,0.5c-0.4-0.2-0.8-0.6-0.8-1.2c0-0.7,0.6-1.3,1.3-1.3h1.2c0.4,0,0.6-0.3,0.6-0.6V8.9
		c0-0.3,0.2-0.4,0.4-0.4h2.1v5.1l0,0V8.5h5c0.3,0,0.4,0.2,0.4,0.4v1.8c0,0.4,0.3,0.6,0.6,0.6h1.1c0.7,0,1.3,0.6,1.3,1.3
		c0,0.5-0.3,1-0.8,1.2c-0.3-0.3-0.6-0.5-1-0.5h-0.3c-0.4,0-0.3,0.3-0.3,0.6v1.2c0,0.1-0.1,0.3-0.1,0.3c-0.1,0.1-0.2,0.1-0.3,0.1H8
		c-0.1,0-0.3-0.1-0.3-0.1c-0.1-0.1-0.1-0.2-0.1-0.3V14c0-0.4,0-0.6-0.3-0.6H6.7z"/>
	<path  d="M6.9,6.4c-0.4,0-0.4,0.2-0.7,0.5C5.7,6.7,5.4,6.3,5.4,5.7C5.4,5,6,4.4,6.7,4.4h1.2c0.4,0,0.6-0.3,0.6-0.6V1.9
		c0-0.3,0.2-0.4,0.4-0.4h1.6v5.1l0,0V1.5H15c0.3,0,0.4,0.2,0.4,0.4v1.8c0,0.4,0.3,0.6,0.6,0.6h1.1c0.7,0,1.3,0.6,1.3,1.3
		c0,0.5-0.3,1-0.8,1.2c-0.3-0.3-0.3-0.5-0.7-0.5h-0.3c-0.4,0-0.6,0.3-0.6,0.6v1.2c0,0.1-0.1,0.3-0.1,0.3c-0.1,0.1-0.2,0.1-0.3,0.1
		H8.5c-0.1,0-0.3-0.1-0.3-0.1C8.1,8.5,8,8.3,8,8.2V7c0-0.4-0.3-0.6-0.6-0.6H6.9z"/>
</svg>
