<svg xmlns="http://www.w3.org/2000/svg" version="1.1" xmlns:xlink="http://www.w3.org/1999/xlink" xmlns:svgjs="http://svgjs.com/svgjs" width="2000" height="1200" preserveAspectRatio="none" viewBox="0 0 2000 1200">
	<style>
		.bg {
			fill: #0e2a47;
		}
		@media (prefers-color-scheme: dark) {
			.bg {
				fill: #0e2a47;
			}
		}
	</style>
	<g mask="url(&quot;#SvgjsMask1024&quot;)" fill="none">
		<rect class="bg" width="2000" height="1200" x="0" y="0"></rect>
		<path d="M0,670.232C124.944,687.394,246.202,615.761,347.089,540.082C443.48,467.775,496.695,358.875,555.37,253.629C619.164,139.201,723.467,28.337,704.669,-101.316C685.873,-230.96,555.678,-308.972,460.718,-399.214C374.598,-481.055,289.646,-565.047,176.992,-602.778C61.685,-641.398,-65.543,-654.246,-180.256,-613.895C-292.375,-574.456,-376.338,-482.385,-443.681,-384.452C-505.949,-293.899,-538.869,-188.318,-548.196,-78.819C-557.138,26.162,-541.652,131.566,-495.712,226.384C-450.446,319.811,-368.126,383.216,-290.783,452.467C-198.702,534.914,-122.448,653.413,0,670.232" fill="#0b2239"></path>
		<path d="M2000 1875.154C2124.665 1854.574 2229.249 1788.1109999999999 2344.083 1735.404 2480.318 1672.875 2672.358 1671.814 2737.337 1536.731 2802.11 1402.076 2694.301 1248.585 2646.327 1107.0720000000001 2606.584 989.8389999999999 2543.852 889.6610000000001 2481.686 782.617 2403.787 648.483 2369.975 475.821 2235.166 399.09799999999996 2093.278 318.346 1894.848 283.51700000000005 1756.212 369.73299999999995 1614.626 457.783 1654.853 681.643 1560.157 818.874 1481.158 933.357 1316.6779999999999 967.53 1257.005 1093.173 1188.1799999999998 1238.086 1146.027 1413.754 1207.1860000000001 1562.066 1268.7069999999999 1711.2559999999999 1424.1480000000001 1803.214 1574.245 1862.488 1709.032 1915.716 1857.019 1898.757 2000 1875.154" fill="#113255"></path>
	</g>
	<defs>
		<mask id="SvgjsMask1024">
			<rect width="100%" height="100%" fill="#ffffff"></rect>
		</mask>
	</defs>
</svg>
