<svg version="1" xmlns="http://www.w3.org/2000/svg" width="66" height="46" viewBox="0 0 66 46">
    <linearGradient id="a" gradientUnits="userSpaceOnUse" x1="14.876" y1="27.875" x2="51.125" y2="-8.375">
        <stop offset="0" stop-color="#efff3f"/>
        <stop offset="1" stop-color="#dde21b"/>
    </linearGradient>
    <path fill-rule="evenodd" clip-rule="evenodd" fill="url(#a)" d="M5.5 1L33 46 60.5 1h-55zm5.323 3h44.355L33 40.176 10.823 4z"/>
    <path d="M5.42 9.754l5.46 13.132c0 .02.038.145.113.377.074.234.13.453.168.658.038-.204.094-.423.17-.657.074-.232.12-.357.14-.377l5.46-13.132h3.387c-.075.168-.252.588-.532 1.26s-.63 1.498-1.05 2.478-.887 2.072-1.4 3.276c-.513 1.204-1.04 2.427-1.582 3.668-.542 1.24-1.07 2.47-1.582 3.683-.513 1.212-.98 2.308-1.4 3.288-.42.98-.773 1.803-1.063 2.465l-.546 1.246c-.074-.17-.25-.585-.53-1.247-.28-.662-.63-1.484-1.05-2.465s-.888-2.076-1.4-3.29c-.515-1.212-1.042-2.44-1.583-3.682-.542-1.24-1.07-2.464-1.582-3.668-.514-1.204-.98-2.296-1.4-3.276s-.77-1.806-1.05-2.478c-.28-.672-.458-1.092-.532-1.26H5.42zM23.51 9.754h3.443v20.412H23.51V9.754zM32.496 30.166V9.754h5.572c1.008 0 1.923.098 2.744.294.82.196 1.52.504 2.1.924.58.42 1.022.97 1.33 1.652.31.682.462 1.498.462 2.45 0 .523-.05 1.03-.153 1.526-.103.495-.27.952-.503 1.372-.234.42-.537.79-.91 1.105-.374.318-.84.56-1.4.73.467.093.938.25 1.414.476.478.223.9.527 1.275.91.373.383.676.857.91 1.428.232.57.35 1.237.35 2.003 0 .988-.19 1.834-.574 2.533-.382.7-.886 1.273-1.51 1.723-.627.446-1.35.772-2.17.98-.823.204-1.672.306-2.55.306h-6.384zm3.416-17.304v5.544h2.576c.952 0 1.656-.28 2.114-.84.457-.56.686-1.232.686-2.016 0-.915-.28-1.59-.84-2.03-.56-.438-1.315-.658-2.268-.658h-2.268zm0 8.456v5.74H38.6c.504 0 .98-.06 1.428-.182s.84-.3 1.176-.533c.337-.232.598-.53.784-.895.187-.365.28-.79.28-1.275 0-.54-.112-.994-.336-1.357s-.522-.658-.896-.88c-.373-.226-.798-.384-1.273-.478-.477-.094-.966-.14-1.47-.14h-2.38zM49.996 30.166V9.754H63.55v3.108H53.41v5.488h9.017v3.192H53.41v5.432H63.94v3.19H49.996z" fill="#FFF"/>
</svg>