<svg xmlns:dc="http://purl.org/dc/elements/1.1/" xmlns:cc="http://creativecommons.org/ns#" xmlns:rdf="http://www.w3.org/1999/02/22-rdf-syntax-ns#" xmlns:svg="http://www.w3.org/2000/svg" xmlns="http://www.w3.org/2000/svg" xmlns:sodipodi="http://sodipodi.sourceforge.net/DTD/sodipodi-0.dtd" xmlns:inkscape="http://www.inkscape.org/namespaces/inkscape" viewBox="0 0 80 80" version="1.1" x="0px" y="0px"><path d="m 23.552538,5.1401762 c 5.694759,0.22649 11.421874,0.32356 17.116632,0.35592 -0.09707,4.27107 -0.09707,8.5421398 -0.129426,12.7808498 0.841271,0.0971 1.22955,0.93834 1.876682,1.32662 0.679488,0.16178 1.391333,-0.0324 2.038465,-0.19414 0.776558,0 0.582418,1.13248 1.164837,1.42369 0.388279,0.0324 0.776558,0.0324 1.164837,0.0647 0.550061,0.35593 1.22955,0.42064 1.876681,0.38828 0.517706,0.0971 1.358977,0.93834 1.553116,-0.0323 0.550062,0.12942 1.035411,0.0971 1.553116,-0.0971 -0.485348,0.61477 0.09707,1.10012 0.679489,1.19719 -0.03236,0.55006 0.388279,0.77656 0.841271,0.93834 0.355922,-0.38828 0.744201,-0.77656 1.100124,-1.19719 0.09707,0.19414 0.258852,0.5177 0.323565,0.71184 0.19414,0 0.582419,-0.0323 0.776558,-0.0323 0.03236,0.16178 0.03236,0.48534 0.03236,0.64713 0.550062,-0.16179 1.067767,-0.35593 1.553116,-0.64713 -0.19414,0.61477 0.06471,1.10012 0.614775,1.32662 0.226496,-0.61478 0.550062,-1.22955 0.873628,-1.81197 0.06471,0.19414 0.226496,0.5177 0.323566,0.71184 0.485348,0.12943 1.067767,0.38828 1.423689,-0.16178 0.582419,0.48535 1.22955,1.13248 2.038465,1.06777 0.744201,-0.32357 1.294263,-1.03541 2.167891,-1.03541 0.679488,0.16178 1.32662,-0.0647 1.876682,-0.38828 0.873627,0.5177 1.747255,0.38828 2.491457,-0.29121 0.420635,0.22649 0.808914,0.45299 1.22955,0.67949 0.938341,1.03541 2.491457,0.97069 3.623937,1.71489 0.614775,-0.0324 1.22955,-0.0647 1.844325,-0.12942 -0.03236,3.2033 0.323566,6.37424 0.355923,9.57755 -0.09707,0.87362 0.711844,1.35897 1.197193,1.94139 0.485349,0.42064 0.258853,1.13248 0.323566,1.68254 0.550062,0.48535 0.970698,1.10013 1.067767,1.84433 1.261907,0.90598 0.970698,2.71795 0.29121,3.91515 -0.420636,0.67948 -0.355923,1.52075 -0.582419,2.26496 0.873628,1.2619 0,2.71795 -0.873628,3.721 0.226496,0.25886 0.485349,0.51771 0.711845,0.77656 -1.714899,-0.55006 -2.976806,1.35898 -4.691704,1.03541 0.09707,0.12943 0.323565,0.42064 0.420635,0.55006 -0.258852,-0.0647 -0.808914,-0.25885 -1.067767,-0.35592 0.09707,0.19414 0.323566,0.51771 0.452992,0.67949 -0.873628,-0.7442 -0.938341,0.77656 -1.488403,1.19719 -0.938341,0.71185 -1.811968,1.52076 -2.750309,2.26496 -1.585473,0.9707 -3.138589,2.20025 -5.11234,2.20025 -0.03236,-0.19414 -0.09707,-0.58242 -0.161783,-0.77656 -0.420636,0.25886 -0.841271,0.51771 -1.261907,0.80892 -0.323566,-0.0647 -0.679488,-0.0971 -1.003054,-0.16179 0.129426,0.58242 0.614775,0.90599 1.100124,1.22956 -0.679488,0.22649 -1.585473,1.13248 -1.973752,0.0324 -0.841271,0.58242 -0.452992,1.81197 -0.647131,2.6856 -0.161783,-0.12943 -0.550062,-0.38828 -0.744202,-0.48535 0.06471,0.16178 0.161783,0.48535 0.226496,0.64713 -0.485348,0.32357 -0.970697,0.71185 -1.197193,1.26191 -0.550062,0.80891 -1.261907,1.65018 -1.100124,2.65324 -0.129426,0.0647 -0.323566,0.19414 -0.420636,0.25885 0.06471,0.38828 0.161783,0.77656 0.226496,1.19719 -0.06471,-0.25885 -0.258852,-0.80891 -0.323565,-1.06776 -0.873628,0.48535 -0.09707,1.39133 -0.550062,2.07082 -0.129427,0.12942 -0.355923,0.42063 -0.485349,0.58242 -0.03236,0.25885 -0.03236,0.77655 -0.06471,1.03541 0.970697,0.67949 0.582418,1.97375 1.13248,2.87973 0.517705,0.93834 0.452992,2.39439 1.779612,2.62089 -0.744201,0 -1.488403,0.25885 -1.747255,1.00305 -0.550062,-0.35592 -1.100124,-0.77656 -1.553116,-1.26191 -1.456046,-0.48535 -3.170945,0.2265 -4.400495,-0.77655 -0.776558,-0.58242 -1.844326,-0.55007 -2.620884,-1.10013 -0.582418,-0.38828 -1.294263,-0.55006 -2.006108,-0.64713 -0.647131,-1.32662 -0.841271,-2.94445 -2.103178,-3.88279 0,-0.48535 -0.03236,-0.9707 -0.03236,-1.45605 -0.744202,-0.64713 -0.129427,-1.74725 -0.614775,-2.52381 -0.647132,-0.25885 -1.358977,-0.48535 -1.811969,-1.06777 -0.550062,-0.77656 -0.808915,-1.74725 -1.553116,-2.36203 -0.485349,-0.48535 -1.197194,-0.80891 -1.42369,-1.45604 -0.485348,-1.74726 -1.811968,-3.13859 -2.135534,-4.9182 -0.905984,-1.26191 -2.103178,-2.29732 -3.397441,-3.13859 -0.452992,-0.48535 -0.841271,-1.03541 -1.197194,-1.61783 -1.456046,0 -2.847379,-0.38828 -4.303425,-0.32357 -0.388279,-0.19414 -0.776558,-0.42063 -1.197194,-0.61477 -0.194139,0.19414 -0.388279,0.38828 -0.550062,0.61477 -0.614775,0.12943 -1.22955,0.2265 -1.811968,0.38828 -0.582419,1.06777 -1.100124,2.20025 -1.553116,3.36509 -0.550062,0.42063 -1.035411,0.90598 -1.42369,1.4884 -0.388279,-0.0324 -0.776558,-0.0971 -1.13248,-0.2265 -1.358977,-0.9707 -2.782667,-1.84432 -4.368139,-2.32967 -0.647132,-0.7442 -1.358977,-1.32662 -2.200248,-1.77961 -0.808914,-1.13248 -1.585472,-2.52382 -1.22955,-3.97986 -0.258853,-0.453 -0.550062,-0.87363 -0.841271,-1.32662 -0.161783,-0.64713 -0.258853,-1.42369 -0.808915,-1.87668 -0.93834,-1.03542 -2.523813,-1.22956 -3.268014,-2.45911 -0.452993,-0.84127 -1.358977,-1.2619 -1.909039,-2.03846 -0.550062,-0.90598 -1.909038,-0.90598 -2.232604,-2.00611 -0.291209,-0.93834 -1.067767,-1.4884 -1.941395,-1.87668 0,-0.19414 0.03236,-0.64713 0.06471,-0.87363 4.400495,0.2265 8.800991,0.55006 13.233843,0.71185 2.55617,0 5.144696,0.38828 7.733223,0.19414 0.06471,-0.0647 0.258852,-0.25886 0.323566,-0.32357 0.194139,-2.20025 0.129426,-4.36814 0.226496,-6.56839 0.355922,-5.14469 0.582418,-10.32175 0.679488,-15.4988 0.194139,-2.49146 0.258853,-5.0152698 0.291209,-7.5390798 z" style="" fill="#000000" stroke="none"/></svg>