<svg
  xmlns="http://www.w3.org/2000/svg"
  viewBox="0 0 24 24"
  fill="none"
  stroke="currentColor"
  stroke-width="1"
  stroke-linecap="round"
  stroke-linejoin="round"
  stroke-miterlimit="10"
>
	<path d="M16,21.5H3
			c-0.8284271,0-1.5-0.6715736-1.5-1.5V7c0-0.8284273,0.6715729-1.5,1.5-1.5h13c0.8284264,0,1.5,0.6715727,1.5,1.5v13
			C17.5,20.8284264,16.8284264,21.5,16,21.5z"/>
	<line x1="8" y1="2.5" x2="9" y2="2.5"/>
	<line stroke-dasharray="2.2,2.2" x1="11.2000008" y1="2.5" x2="18.9000015" y2="2.5"/>
	<line x1="20" y1="2.5" x2="21" y2="2.5"/>
	<line x1="22.5" y1="4" x2="22.5" y2="5"/>
	<line stroke-dasharray="2.2,2.2" x1="22.5" y1="7.2000122" x2="22.5" y2="14.8999939"/>
	<line x1="22.5" y1="16" x2="22.5" y2="17"/>
	<line x1="4.5" y1="10.5" x2="14.5" y2="10.5"/>
	<line x1="4.5" y1="13.5" x2="14.5" y2="13.5"/>
	<line x1="4.5" y1="16.5" x2="14.5" y2="16.5"/>
	<line x1="19.5" y1="7.5" x2="17.5" y2="7.5"/>
	<line x1="19.5" y1="10.5" x2="17.5" y2="10.5"/>
	<line x1="19.5" y1="13.5" x2="17.5" y2="13.5"/>
	<path d="M22.5,4
			c0-0.8291016-0.6708984-1.5-1.5-1.5"/>
	<path d="M8,2.5
			C7.1708984,2.5,6.5,3.1708984,6.5,4v1.5"/>
	<path d="M20,18.5h1
			c0.8291016,0,1.5-0.6708984,1.5-1.5"/>
	<line x1="17.7794113" y1="18.5" x2="17.5" y2="18.5"/>
</svg>
